<mxfile host="app.diagrams.net" modified="2021-05-08T10:31:13.003Z" agent="5.0 (Windows NT 10.0; Win64; x64) AppleWebKit/537.36 (KHTML, like Gecko) Chrome/90.0.4430.93 Safari/537.36" etag="Rv5Et9KfGeicj5aJQLV-" version="14.6.11" type="github">
  <diagram id="FD89doHL0ahKAhhQwfYo" name="第 1 页">
    <mxGraphModel dx="3769" dy="1154" grid="1" gridSize="10" guides="1" tooltips="1" connect="1" arrows="1" fold="1" page="1" pageScale="1" pageWidth="827" pageHeight="1169" math="0" shadow="0">
      <root>
        <mxCell id="0" />
        <mxCell id="1" parent="0" />
        <mxCell id="-f9pjgE_4M0TUQKW00WD-24" style="edgeStyle=orthogonalEdgeStyle;rounded=0;orthogonalLoop=1;jettySize=auto;html=1;entryX=0;entryY=0.111;entryDx=0;entryDy=0;entryPerimeter=0;" edge="1" parent="1" source="-f9pjgE_4M0TUQKW00WD-1" target="-f9pjgE_4M0TUQKW00WD-7">
          <mxGeometry relative="1" as="geometry" />
        </mxCell>
        <mxCell id="-f9pjgE_4M0TUQKW00WD-1" value="nginx日志文件" style="whiteSpace=wrap;html=1;" vertex="1" parent="1">
          <mxGeometry x="-760" y="160" width="120" height="60" as="geometry" />
        </mxCell>
        <mxCell id="-f9pjgE_4M0TUQKW00WD-11" value="" style="edgeStyle=orthogonalEdgeStyle;rounded=0;orthogonalLoop=1;jettySize=auto;html=1;" edge="1" parent="1" source="-f9pjgE_4M0TUQKW00WD-2" target="-f9pjgE_4M0TUQKW00WD-7">
          <mxGeometry relative="1" as="geometry">
            <Array as="points">
              <mxPoint x="-590" y="330" />
              <mxPoint x="-590" y="330" />
            </Array>
          </mxGeometry>
        </mxCell>
        <mxCell id="-f9pjgE_4M0TUQKW00WD-2" value="服务A日志" style="rounded=0;whiteSpace=wrap;html=1;" vertex="1" parent="1">
          <mxGeometry x="-760" y="300" width="120" height="60" as="geometry" />
        </mxCell>
        <mxCell id="-f9pjgE_4M0TUQKW00WD-12" value="" style="edgeStyle=orthogonalEdgeStyle;rounded=0;orthogonalLoop=1;jettySize=auto;html=1;" edge="1" parent="1" source="-f9pjgE_4M0TUQKW00WD-4" target="-f9pjgE_4M0TUQKW00WD-7">
          <mxGeometry relative="1" as="geometry">
            <Array as="points">
              <mxPoint x="-590" y="400" />
              <mxPoint x="-590" y="400" />
            </Array>
          </mxGeometry>
        </mxCell>
        <mxCell id="-f9pjgE_4M0TUQKW00WD-4" value="服务B日志" style="rounded=0;whiteSpace=wrap;html=1;" vertex="1" parent="1">
          <mxGeometry x="-760" y="370" width="120" height="60" as="geometry" />
        </mxCell>
        <mxCell id="-f9pjgE_4M0TUQKW00WD-10" style="edgeStyle=orthogonalEdgeStyle;rounded=0;orthogonalLoop=1;jettySize=auto;html=1;entryX=0.008;entryY=0.388;entryDx=0;entryDy=0;entryPerimeter=0;" edge="1" parent="1" source="-f9pjgE_4M0TUQKW00WD-5" target="-f9pjgE_4M0TUQKW00WD-7">
          <mxGeometry relative="1" as="geometry">
            <Array as="points">
              <mxPoint x="-640" y="265" />
              <mxPoint x="-640" y="265" />
            </Array>
          </mxGeometry>
        </mxCell>
        <mxCell id="-f9pjgE_4M0TUQKW00WD-5" value="redis日志&lt;br&gt;......" style="whiteSpace=wrap;html=1;" vertex="1" parent="1">
          <mxGeometry x="-760" y="230" width="120" height="60" as="geometry" />
        </mxCell>
        <mxCell id="-f9pjgE_4M0TUQKW00WD-14" style="edgeStyle=orthogonalEdgeStyle;rounded=0;orthogonalLoop=1;jettySize=auto;html=1;entryX=0;entryY=0.5;entryDx=0;entryDy=0;" edge="1" parent="1" source="-f9pjgE_4M0TUQKW00WD-7" target="-f9pjgE_4M0TUQKW00WD-13">
          <mxGeometry relative="1" as="geometry" />
        </mxCell>
        <mxCell id="-f9pjgE_4M0TUQKW00WD-7" value="Filebeat" style="whiteSpace=wrap;html=1;" vertex="1" parent="1">
          <mxGeometry x="-560" y="160" width="120" height="270" as="geometry" />
        </mxCell>
        <mxCell id="-f9pjgE_4M0TUQKW00WD-22" style="edgeStyle=orthogonalEdgeStyle;rounded=0;orthogonalLoop=1;jettySize=auto;html=1;entryX=0;entryY=0.5;entryDx=0;entryDy=0;" edge="1" parent="1" source="-f9pjgE_4M0TUQKW00WD-13" target="-f9pjgE_4M0TUQKW00WD-15">
          <mxGeometry relative="1" as="geometry" />
        </mxCell>
        <mxCell id="-f9pjgE_4M0TUQKW00WD-13" value="Logstash" style="rounded=0;whiteSpace=wrap;html=1;" vertex="1" parent="1">
          <mxGeometry x="-400" y="160" width="120" height="270" as="geometry" />
        </mxCell>
        <mxCell id="-f9pjgE_4M0TUQKW00WD-23" style="edgeStyle=orthogonalEdgeStyle;rounded=0;orthogonalLoop=1;jettySize=auto;html=1;entryX=0;entryY=0.5;entryDx=0;entryDy=0;" edge="1" parent="1" source="-f9pjgE_4M0TUQKW00WD-15" target="-f9pjgE_4M0TUQKW00WD-16">
          <mxGeometry relative="1" as="geometry" />
        </mxCell>
        <mxCell id="-f9pjgE_4M0TUQKW00WD-15" value="Elasticsearch" style="rounded=0;whiteSpace=wrap;html=1;" vertex="1" parent="1">
          <mxGeometry x="-240" y="160" width="120" height="270" as="geometry" />
        </mxCell>
        <mxCell id="-f9pjgE_4M0TUQKW00WD-16" value="Kibana" style="rounded=0;whiteSpace=wrap;html=1;" vertex="1" parent="1">
          <mxGeometry x="-90" y="160" width="120" height="270" as="geometry" />
        </mxCell>
        <mxCell id="-f9pjgE_4M0TUQKW00WD-17" value="日志文件" style="text;html=1;align=center;verticalAlign=middle;resizable=0;points=[];autosize=1;strokeColor=none;" vertex="1" parent="1">
          <mxGeometry x="-720" y="110" width="60" height="20" as="geometry" />
        </mxCell>
        <mxCell id="-f9pjgE_4M0TUQKW00WD-18" value="采集框架" style="text;html=1;align=center;verticalAlign=middle;resizable=0;points=[];autosize=1;strokeColor=none;" vertex="1" parent="1">
          <mxGeometry x="-550" y="110" width="60" height="20" as="geometry" />
        </mxCell>
        <mxCell id="-f9pjgE_4M0TUQKW00WD-19" value="数据仓库" style="text;html=1;align=center;verticalAlign=middle;resizable=0;points=[];autosize=1;strokeColor=none;" vertex="1" parent="1">
          <mxGeometry x="-220" y="110" width="60" height="20" as="geometry" />
        </mxCell>
        <mxCell id="-f9pjgE_4M0TUQKW00WD-20" value="可视化展示" style="text;html=1;align=center;verticalAlign=middle;resizable=0;points=[];autosize=1;strokeColor=none;" vertex="1" parent="1">
          <mxGeometry x="-70" y="110" width="80" height="20" as="geometry" />
        </mxCell>
        <mxCell id="-f9pjgE_4M0TUQKW00WD-21" value="数据解析、转换" style="text;html=1;align=center;verticalAlign=middle;resizable=0;points=[];autosize=1;strokeColor=none;" vertex="1" parent="1">
          <mxGeometry x="-410" y="110" width="100" height="20" as="geometry" />
        </mxCell>
      </root>
    </mxGraphModel>
  </diagram>
</mxfile>
